<svg xmlns="http://www.w3.org/2000/svg" viewBox="0 0 300.078 300.078" style="enable-background:new 0 0 300.078 300.078" xml:space="preserve"><path style="fill:#333" d="m230.997 163.103-6.846-6.846c3.452-3.452 3.452-9.068 0-12.52-3.345-3.345-9.174-3.345-12.52 0l-6.846-6.846 4.841-4.841c3.452-3.452 3.452-9.068 0-12.52-3.345-3.345-9.174-3.345-12.52 0l-4.841 4.841-6.846-6.846 9.683-9.683c3.452-3.452 3.452-9.068 0-12.52s-9.068-3.452-12.52 0l-9.683 9.683-6.846-6.846 4.841-4.841c1.675-1.675 2.59-3.897 2.59-6.26s-.915-4.585-2.59-6.26c-3.452-3.452-9.068-3.452-12.52 0l-4.841 4.841-6.846-6.846 4.841-4.841c7.223-7.223 18.988-7.223 26.211 0a18.443 18.443 0 0 1 5.17 10.07c6.458-2.164 13.894-.687 19.036 4.454 5.141 5.141 6.623 12.573 4.454 19.036a18.45 18.45 0 0 1 10.07 5.17c5.141 5.141 6.623 12.573 4.454 19.036a18.45 18.45 0 0 1 10.07 5.17c7.232 7.227 7.232 18.992.004 26.215zM156.374 219.194l-13.865 13.861-33.769 14.475-49.008 44.104 6.478 7.194 16.46-14.814c1.966.992 3.921 2.014 5.902 2.9l3.96-8.831c-.707-.32-1.409-.707-2.116-1.041l23.606-21.248 34.01-14.572 15.182-15.187-6.84-6.841z"/><path style="fill:#f9ba48" d="m124.673 51.168-73.389 73.389 16.872 16.872 16.586-16.039.058-.058c3.98-3.98 10.457-3.98 14.437 0 3.428 3.428 3.965 8.845 1.278 12.878l-14.233 21.34 89.278 89.278 73.389-73.389L124.673 51.168zm43.058 116.447c-9.726 9.726-25.499 9.726-35.23 0-9.726-9.726-9.726-25.499 0-35.23 9.726-9.726 25.499-9.726 35.23 0 9.726 9.726 9.726 25.499 0 35.23z"/><path style="fill:#333" d="M150.119 179.752c-7.949 0-15.424-3.098-21.04-8.719-5.621-5.616-8.719-13.091-8.719-21.035 0-7.954 3.098-15.424 8.719-21.04 5.616-5.621 13.086-8.719 21.04-8.719 7.949 0 15.42 3.098 21.035 8.719 5.621 5.616 8.719 13.086 8.719 21.04 0 7.949-3.098 15.419-8.719 21.035-5.616 5.625-13.086 8.719-21.035 8.719zm0-49.826c-5.359 0-10.399 2.091-14.195 5.882a19.921 19.921 0 0 0-5.882 14.195c0 5.354 2.091 10.394 5.882 14.19a19.944 19.944 0 0 0 14.195 5.882c5.354 0 10.394-2.091 14.19-5.882s5.882-8.831 5.882-14.19-2.091-10.399-5.882-14.195a19.929 19.929 0 0 0-14.19-5.882zM78.308 171.517l8.056 5.369 22.207-33.308c5.238-7.862 4.193-18.416-2.488-25.097-7.756-7.756-20.377-7.756-28.133 0l-29.125 29.125-9.683 48.413-15.289 15.298c-.412-.847-.876-1.67-1.268-2.522l-8.792 4.057c.886 1.912 1.883 3.786 2.856 5.669L1.452 233.718l6.846 6.846 39.766-39.766 9.683-48.413L84.8 125.331c3.98-3.98 10.457-3.98 14.437 0 3.428 3.428 3.965 8.845 1.278 12.878l-22.207 33.308zM19.811 97.625l-8.981-3.612a150.202 150.202 0 0 0-6.294 19.37l9.387 2.353a140.91 140.91 0 0 1 5.888-18.111zM38.648 64.621 30.97 58.72a148.668 148.668 0 0 0-11.271 16.959l8.404 4.793a141.09 141.09 0 0 1 10.545-15.851zM1.946 174.001a148.74 148.74 0 0 0 4.594 19.835l9.257-2.827a139.596 139.596 0 0 1-4.294-18.537l-9.557 1.529zM9.716 149.998c0-5.185.29-10.409.852-15.531l-9.624-1.06a151.557 151.557 0 0 0-.91 16.61c.005 1.249.019 2.484.048 3.718l9.683-.228a172.07 172.07 0 0 1-.049-3.509zM274.956 66.684a152.318 152.318 0 0 0-12.418-16.107l-7.252 6.41a141.892 141.892 0 0 1 11.624 15.076l8.046-5.379zM65.624 37.854l-5.834-7.727A152.338 152.338 0 0 0 44.414 43.45l6.817 6.875a142.498 142.498 0 0 1 14.393-12.471zM290.371 143.568l9.673-.445a150.887 150.887 0 0 0-2.29-20.212l-9.523 1.728a142.161 142.161 0 0 1 2.14 18.929zM292.738 103.177a150.652 150.652 0 0 0-7.644-18.862l-8.709 4.236a140.834 140.834 0 0 1 7.155 17.642l9.198-3.016zM98.743 19.297l-3.544-9.01a150.098 150.098 0 0 0-18.378 8.719l4.74 8.443a138.932 138.932 0 0 1 17.182-8.152zM154.669 9.673c6.342.203 12.713.842 18.944 1.893l1.607-9.552A151.374 151.374 0 0 0 154.979 0l-.31 9.673zM221.218 271.093l4.919 8.342a151.313 151.313 0 0 0 16.79-11.484l-5.993-7.601a142.791 142.791 0 0 1-15.716 10.743zM226.5 32.18a140.531 140.531 0 0 1 15.231 11.435l6.328-7.339a151.79 151.79 0 0 0-16.281-12.219L226.5 32.18zM192.126 15.991a140.313 140.313 0 0 1 17.743 6.918l4.125-8.758a148.662 148.662 0 0 0-18.973-7.397l-2.895 9.237zM273.552 216.943l8.511 4.623a149.942 149.942 0 0 0 8.482-18.508l-9.058-3.423a138.911 138.911 0 0 1-7.935 17.308zM286.982 181.403l9.436 2.154a149.602 149.602 0 0 0 3.176-20.101l-9.644-.862a139.767 139.767 0 0 1-2.968 18.809zM251.055 247.578l6.962 6.734a150.03 150.03 0 0 0 13.13-15.555l-7.799-5.732a142.255 142.255 0 0 1-12.293 14.553zM186.186 285.718l2.488 9.363a148.646 148.646 0 0 0 19.263-6.55l-3.733-8.937a139.63 139.63 0 0 1-18.018 6.124zM108.198 294.142a152.313 152.313 0 0 0 19.888 4.328l1.409-9.581a140.249 140.249 0 0 1-18.605-4.052l-2.692 9.305zM114.598 4.149l2.28 9.407a141.283 141.283 0 0 1 18.765-3.219l-.992-9.634a151.35 151.35 0 0 0-20.053 3.446zM150.114 290.395l-1.646-.01-.087 9.683 1.733.01c6.211 0 12.461-.382 18.576-1.138l-1.191-9.605a143.19 143.19 0 0 1-17.385 1.06z"/></svg>