<svg xmlns="http://www.w3.org/2000/svg" viewBox="0 0 300.16 300.16" style="enable-background:new 0 0 300.16 300.16" xml:space="preserve"><path style="fill:#f9ba48" d="M4.841 24.206v130.715h125.873V111.35h67.778V24.206H4.841zm31.469 111.35a7.264 7.264 0 0 1-7.262-7.262c0-4.009 3.253-7.262 7.262-7.262s7.262 3.253 7.262 7.262a7.265 7.265 0 0 1-7.262 7.262zm33.889-33.889c-4.009 0-7.262-3.253-7.262-7.262s3.253-7.262 7.262-7.262 7.262 3.253 7.262 7.262-3.254 7.262-7.262 7.262zm38.73 19.365c-4.009 0-7.262-3.253-7.262-7.262s3.253-7.262 7.262-7.262 7.262 3.253 7.262 7.262-3.253 7.262-7.262 7.262zm58.095-62.937c-4.009 0-7.262-3.253-7.262-7.262s3.253-7.262 7.262-7.262 7.262 3.253 7.262 7.262-3.253 7.262-7.262 7.262z"/><path style="fill:#333" d="M280.795 125.873H145.239v58.095h135.556v-58.095zm-9.683 48.413H154.921v-38.73h116.191v38.73zM183.969 193.651h-38.73v38.73h38.73v-38.73zm-9.683 29.048h-19.365v-19.365h19.365v19.365zM183.969 242.064h-38.73v38.73h38.73v-38.73zm-9.683 29.048h-19.365v-19.365h19.365v19.365zM193.651 232.382h38.73v-38.73h-38.73v38.73zm9.683-29.048h19.365v19.365h-19.365v-19.365z"/><path style="fill:#333" d="M125.873 106.508v48.413H0v24.206h27.983L4.938 294.37l9.494 1.903 23.427-117.145h58.967v116.191h9.683V179.128h19.365V300.16H300.16V106.508H125.873zM9.683 169.445v-4.841h116.191v4.841H9.683zm280.794 121.032H135.556V116.191h154.921v174.286z"/><path style="fill:#333" d="M193.651 280.795h38.73v-38.73h-38.73v38.73zm9.683-29.048h19.365v19.365h-19.365v-19.365zM242.064 232.382h38.73v-38.73h-38.73v38.73zm9.683-29.048h19.365v19.365h-19.365v-19.365zM242.064 280.795h38.73v-38.73h-38.73v38.73zm9.683-29.048h19.365v19.365h-19.365v-19.365zM203.334 0H0v24.206h203.334V0zm-9.683 14.524H9.683V9.683h183.969l-.001 4.841zM167.024 62.937c6.676 0 12.103-5.432 12.103-12.103S173.7 38.73 167.024 38.73s-12.103 5.432-12.103 12.103c0 1.685.353 3.292.978 4.754l-42.928 46.83c-1.268-.46-2.619-.75-4.042-.75-3.244 0-6.177 1.297-8.351 3.384l-18.31-10.985c-.184-6.516-5.509-11.764-12.069-11.764-6.676 0-12.103 5.432-12.103 12.103 0 1.554.32 3.031.857 4.401L40.71 117.048c-1.37-.537-2.847-.857-4.401-.857-6.676 0-12.103 5.432-12.103 12.103 0 6.671 5.427 12.103 12.103 12.103s12.103-5.432 12.103-12.103c0-1.554-.32-3.031-.857-4.401l18.242-18.242c1.37.537 2.847.857 4.401.857 3.244 0 6.177-1.297 8.351-3.384l18.31 10.985c.184 6.516 5.509 11.764 12.069 11.764 6.676 0 12.103-5.432 12.103-12.103a12.07 12.07 0 0 0-.978-4.754l42.928-46.83c1.269.46 2.62.751 4.043.751zm0-14.524a2.425 2.425 0 0 1 2.421 2.421c0 1.336-1.089 2.421-2.421 2.421s-2.421-1.084-2.421-2.421a2.426 2.426 0 0 1 2.421-2.421zM36.31 130.715a2.425 2.425 0 0 1-2.421-2.421c0-1.336 1.089-2.421 2.421-2.421s2.421 1.084 2.421 2.421a2.426 2.426 0 0 1-2.421 2.421zm33.889-33.889c-1.331 0-2.421-1.084-2.421-2.421s1.089-2.421 2.421-2.421c1.331 0 2.421 1.084 2.421 2.421s-1.09 2.421-2.421 2.421zm38.73 19.365c-1.331 0-2.421-1.084-2.421-2.421s1.089-2.421 2.421-2.421 2.421 1.084 2.421 2.421-1.09 2.421-2.421 2.421z"/></svg>