<svg xmlns="http://www.w3.org/2000/svg" viewBox="0 0 512 512" style="enable-background:new 0 0 512 512" xml:space="preserve"><path d="M251.574 0c-37.454 0-67.925 30.471-67.925 67.926-.001 37.454 30.47 67.925 67.925 67.925 37.454 0 67.926-30.471 67.926-67.925C319.5 30.471 289.028 0 251.574 0zm0 105.434c-20.682 0-37.508-16.826-37.508-37.508-.001-20.683 16.825-37.509 37.508-37.509 20.682 0 37.509 16.826 37.509 37.509-.001 20.682-16.827 37.508-37.509 37.508zM190.525 204.932h122.106v30.417H190.525z"/><path d="M304.62 153.082H198.529c-2.383 0-4.774.056-7.168.166-11.603-23.7-35.991-39.386-63.066-39.386h-15.209v64.928c-24.427 16.201-43.836 39.075-55.821 65.747H13.751v126.705h43.494a155.583 155.583 0 0 0 39.019 52.855 155.186 155.186 0 0 0 56.453 31.674V512h86.192v-49.304h25.329V512h86.192v-56.214c29.054-9.021 55.177-26.645 74.494-50.468 19.047-23.49 30.761-52.231 33.74-82.22h39.585V292.68H458.68c-7.666-78.249-73.83-139.598-154.06-139.598zm96.678 233.077c-17.623 21.734-42.268 37.044-69.396 43.113l-11.889 2.659v49.651h-25.357v-49.304h-86.164v49.304h-25.357v-49.668l-11.889-2.659c-20.247-4.53-39.226-14.209-54.884-27.991-15.552-13.689-27.528-31.143-34.63-50.476l-3.659-9.966H44.169v-65.87h33.92l3.661-9.962c9.959-27.094 29.21-50.045 54.207-64.627l7.544-4.401v-48.647c11.055 4.599 19.786 14.077 23.114 26.093l3.501 12.64 13.018-1.605a126.218 126.218 0 0 1 15.394-.948h106.09c68.588 0 124.391 55.801 124.391 124.39.001 28.852-9.583 55.917-27.711 78.274z"/><circle cx="129.315" cy="260.028" r="16.68"/></svg>