<svg xmlns="http://www.w3.org/2000/svg" viewBox="0 0 303.229 303.229" style="enable-background:new 0 0 303.229 303.229" xml:space="preserve"><circle style="fill:#f9ba48" cx="151.615" cy="151.615" r="67.778"/><path style="fill:#333" d="M300.528 148.463c-.813-.949-7.891-9.048-20.217-19.394-.455-2.629-.934-5.262-1.549-7.833l-6.328 1.51c-25.751-19.801-67.841-43.751-120.819-43.751s-95.068 23.95-120.824 43.746l-6.328-1.51c-.615 2.571-1.089 5.209-1.549 7.833C10.588 139.41 3.51 147.509 2.697 148.458L0 151.615l2.701 3.152c.813.949 7.891 9.048 20.217 19.394.455 2.629.934 5.267 1.549 7.833l6.328-1.51c25.746 19.796 67.841 43.751 120.819 43.751s95.073-23.955 120.824-43.751l6.328 1.51c.615-2.566 1.089-5.204 1.549-7.833 12.326-10.346 19.404-18.445 20.217-19.394l2.697-3.152-2.701-3.152zm-148.913 66.088c-73.103 0-125.961-49.788-138.64-62.937 12.665-13.163 65.42-62.937 138.64-62.937 73.103 0 125.961 49.788 138.64 62.937-12.665 13.164-65.421 62.937-138.64 62.937zM105.342 39.742l-3.704-8.947a130.718 130.718 0 0 0-18.286 9.324l5.069 8.25a121.302 121.302 0 0 1 16.921-8.627zM73.05 59.553l-6.294-7.364a132.38 132.38 0 0 0-14.509 14.504l7.359 6.294A123.217 123.217 0 0 1 73.05 59.553zM142.179 30.946l-.741-9.654a130.428 130.428 0 0 0-20.275 3.176l2.251 9.416a120.484 120.484 0 0 1 18.765-2.938zM48.427 88.353l-8.25-5.069a131.128 131.128 0 0 0-9.334 18.276l8.947 3.713a120.295 120.295 0 0 1 8.637-16.92zM243.705 73.089l7.364-6.284a132.043 132.043 0 0 0-14.5-14.524l-6.294 7.359a120.96 120.96 0 0 1 13.43 13.449zM182.211 24.507a130.308 130.308 0 0 0-20.27-3.2l-.75 9.654a121.56 121.56 0 0 1 18.76 2.958l2.26-9.412zM219.998 40.197a130.135 130.135 0 0 0-18.266-9.344l-3.718 8.942a120.526 120.526 0 0 1 16.911 8.651l5.073-8.249zM272.443 101.701a130.666 130.666 0 0 0-9.315-18.29l-8.254 5.059a120.82 120.82 0 0 1 8.617 16.93l8.952-3.699zM230.184 243.676l6.289 7.364a131.945 131.945 0 0 0 14.514-14.509l-7.364-6.289a122.729 122.729 0 0 1-13.439 13.434zM197.888 263.487l3.708 8.947a131.617 131.617 0 0 0 18.276-9.319l-5.059-8.254a122.398 122.398 0 0 1-16.925 8.626zM161.05 272.284l.746 9.654a130.878 130.878 0 0 0 20.266-3.176l-2.242-9.416a122.421 122.421 0 0 1-18.77 2.938zM254.807 214.871l8.25 5.069a131.562 131.562 0 0 0 9.329-18.266l-8.937-3.718a121.643 121.643 0 0 1-8.642 16.915zM30.786 201.533a130.402 130.402 0 0 0 9.315 18.286l8.254-5.059a120.272 120.272 0 0 1-8.617-16.925l-8.952 3.698zM59.524 230.14l-7.364 6.289a132.828 132.828 0 0 0 14.495 14.519l6.299-7.359a121.733 121.733 0 0 1-13.43-13.449zM121.018 278.727a130.991 130.991 0 0 0 20.27 3.195l.75-9.654a121.91 121.91 0 0 1-18.765-2.958l-2.255 9.417zM83.231 263.032a130.858 130.858 0 0 0 18.266 9.344l3.723-8.937a121.784 121.784 0 0 1-16.915-8.651l-5.074 8.244z"/><path style="fill:#333" d="M166.138 108.043h-9.683V93.519h-9.683v14.524h-9.683c-13.347 0-24.206 10.859-24.206 24.206s10.859 24.206 24.206 24.206h29.048c8.007 0 14.524 6.516 14.524 14.524s-6.516 14.524-14.524 14.524h-29.048c-8.007 0-14.524-6.516-14.524-14.524v-4.841h-9.683v4.841c0 13.347 10.859 24.206 24.206 24.206h9.683v14.524h9.683v-14.524h9.683c13.347 0 24.206-10.859 24.206-24.206s-10.859-24.206-24.206-24.206h-29.048c-8.007 0-14.524-6.516-14.524-14.524 0-8.007 6.516-14.524 14.524-14.524h29.048c8.007 0 14.524 6.516 14.524 14.524v4.841h9.683v-4.841c.001-13.347-10.858-24.206-24.206-24.206z"/></svg>