<svg xmlns="http://www.w3.org/2000/svg" viewBox="0 0 300.16 300.16" style="enable-background:new 0 0 300.16 300.16" xml:space="preserve"><path style="fill:#f9ba48" d="M38.731 19.365v4.841c0 8.007-6.516 14.524-14.524 14.524h-4.841v222.699h4.841c8.007 0 14.524 6.516 14.524 14.524v4.841h87.143V19.365H38.731zm82.302 176.906a48.467 48.467 0 0 1-14.524 2.222c-26.738 0-48.413-21.674-48.413-48.413s21.674-48.413 48.413-48.413c5.059 0 9.939.784 14.524 2.222v92.382z"/><path style="fill:#333" d="M275.953 0H.001v300.16h275.953c13.347 0 24.206-10.859 24.206-24.206V24.206C300.16 10.859 289.301 0 275.953 0zm0 9.683c8.008 0 14.524 6.516 14.524 14.524V38.73H125.874V24.206c0-8.007 6.516-14.524 14.524-14.524h135.556v.001zM116.192 192.567a43.613 43.613 0 0 1-9.683 1.084c-24.022 0-43.572-19.549-43.572-43.572s19.549-43.572 43.572-43.572c3.268 0 6.516.363 9.683 1.084v84.976zm9.682-144.154h164.604v188.81H125.874V48.413zM9.684 9.683h111.475c-3.074 4.057-4.967 9.053-4.967 14.524v73.539c-3.186-.586-6.42-.92-9.683-.92-29.362 0-53.254 23.892-53.254 53.254s23.892 53.254 53.254 53.254c3.263 0 6.497-.334 9.683-.92v73.539c0 5.471 1.893 10.467 4.967 14.524H9.684V9.683zm266.269 280.794H140.399c-8.007 0-14.524-6.516-14.524-14.524v-29.048h164.604v29.048c-.002 8.008-6.518 14.524-14.526 14.524z"/><path style="fill:#333" d="M203.335 19.365h38.73v9.683h-38.73zM174.286 19.365h9.683v9.683h-9.683zM208.176 251.747c-9.344 0-16.945 7.601-16.945 16.944 0 9.344 7.601 16.945 16.945 16.945 9.344 0 16.945-7.601 16.945-16.945-.001-9.343-7.601-16.944-16.945-16.944zm0 24.206c-4.004 0-7.262-3.258-7.262-7.262s3.258-7.262 7.262-7.262 7.262 3.258 7.262 7.262-3.258 7.262-7.262 7.262zM271.112 58.095H145.24c-8.007 0-14.524 6.516-14.524 14.524v77.461c0 8.007 6.516 14.524 14.524 14.524h125.873c8.007 0 14.524-6.516 14.524-14.524V72.619c-.001-8.007-6.518-14.524-14.525-14.524zM145.24 67.778h125.873a4.849 4.849 0 0 1 4.841 4.841v43.572H140.398V72.619a4.85 4.85 0 0 1 4.842-4.841zm130.713 58.095v9.683H140.398v-9.683h135.555zm-4.841 29.048H145.24a4.849 4.849 0 0 1-4.841-4.841v-4.841h135.556v4.841a4.852 4.852 0 0 1-4.843 4.841z"/><path style="fill:#333" d="M150.081 77.461h38.73v9.683h-38.73zM164.605 91.984h24.206v9.683h-24.206zM164.605 188.81H145.24v38.73h9.683v-9.683h9.683c8.007 0 14.524-6.516 14.524-14.524-.001-8.007-6.519-14.523-14.525-14.523zm0 19.365h-9.683v-9.683h9.683c2.668 0 4.841 2.174 4.841 4.841s-2.175 4.842-4.841 4.842zM188.811 227.54h9.683v-9.683h14.524v9.683h9.683v-38.73h-33.89v38.73zm24.207-29.047v9.683h-14.524v-9.683h14.524zM261.429 203.334h-19.365V188.81h-9.681v24.207h14.524v14.523h9.682v-14.523h14.523V188.81h-9.683z"/></svg>