<svg xmlns="http://www.w3.org/2000/svg" viewBox="0 0 300.16 300.16" style="enable-background:new 0 0 300.16 300.16" xml:space="preserve"><path style="fill:#333" d="M0 24.206v232.382h14.524v11.164c0 4.522 3.679 8.201 8.201 8.201h51.376c4.522 0 8.201-3.679 8.201-8.201v-11.164h135.556v11.164c0 4.522 3.679 8.201 8.201 8.201h51.376c4.522 0 8.201-3.679 8.201-8.201v-11.164h14.524V24.207L0 24.206zm72.619 242.065H24.206v-9.683h48.413v9.683zm203.334 0H227.54v-9.683h48.413v9.683zm-12.117-164.604a2.409 2.409 0 0 1-2.406-2.406v-24.24a2.408 2.408 0 0 1 2.406-2.401h26.642v29.048l-26.642-.001zm7.276-38.73h-7.276c-6.666 0-12.089 5.422-12.089 12.089v24.24c0 6.662 5.422 12.084 12.089 12.084h7.276v58.095h-7.276c-6.666 0-12.089 5.422-12.089 12.089v24.24c0 6.662 5.422 12.084 12.089 12.084h7.276v9.683H29.048V53.254h242.064v9.683zm-7.276 145.238a2.409 2.409 0 0 1-2.406-2.406v-24.24a2.408 2.408 0 0 1 2.406-2.401h26.642v29.048l-26.642-.001zm26.641-38.73h-9.683V111.35h9.683v58.095zm-9.682-106.508V43.572H19.365v193.651h261.429v-19.365h9.683v29.048H9.683V33.889h280.795v29.048h-9.683z"/><path style="fill:#f9ba48" d="M217.858 198.493H63.334c-8.453 0-15.492-6.042-16.746-14.364-1.375-9.136-3.016-24.139-3.016-43.731s1.641-34.596 3.016-43.736c1.254-8.317 8.293-14.359 16.746-14.359h154.524v116.19z"/><path style="fill:#333" d="M96.826 106.508c-18.687 0-33.889 15.202-33.889 33.889s15.202 33.889 33.889 33.889 33.889-15.202 33.889-33.889-15.202-33.889-33.889-33.889zM81.803 121.57c2.014-1.607 4.251-2.91 6.715-3.815l23.33 41.475c-2.014 1.607-4.251 2.91-6.715 3.815l-23.33-41.475zm39.229 18.827c0 3.873-1.002 7.489-2.624 10.738l-19.539-34.741c12.374 1.056 22.163 11.353 22.163 24.003zm-48.413 0c0-3.873 1.002-7.489 2.624-10.738l19.54 34.741c-12.375-1.055-22.164-11.352-22.164-24.003zM140.397 106.508h24.206v9.683h-24.206zM174.286 106.508h24.206v9.683h-24.206zM140.397 125.873h24.206v9.683h-24.206zM174.286 125.873h24.206v9.683h-24.206zM140.397 145.239h24.206v9.683h-24.206zM174.286 145.239h24.206v9.683h-24.206zM140.397 164.604h24.206v9.683h-24.206zM174.286 164.604h24.206v9.683h-24.206z"/></svg>