<svg xmlns="http://www.w3.org/2000/svg" viewBox="0 0 300.16 300.16" style="enable-background:new 0 0 300.16 300.16" xml:space="preserve"><path style="fill:#f9ba48" d="M275.953 70.199c-8.007 0-14.524-6.516-14.524-14.524v-4.841H38.73v4.841c0 8.007-6.516 14.524-14.524 14.524h-4.841v96.826h4.841c8.007 0 14.524 6.516 14.524 14.524v4.841h140.397v-14.524h9.683V152.5c0-26.738 21.674-48.413 48.413-48.413 19.205 0 35.743 11.208 43.572 27.416V70.199h-4.842zM150.08 162.184c-24.066 0-43.572-19.506-43.572-43.572S126.014 75.04 150.08 75.04s43.572 19.506 43.572 43.572-19.506 43.572-43.572 43.572z"/><path style="fill:#333" d="M0 31.468v174.286h174.286v62.937H300.16V31.468H0zm9.683 164.605V41.151h280.795V152.5c0-29.362-23.892-53.254-53.254-53.254-15.332 0-29.125 6.55-38.851 16.949-1.273-25.572-22.415-45.997-48.292-45.997-26.695 0-48.413 21.718-48.413 48.413s21.718 48.413 48.413 48.413c13.188 0 25.15-5.316 33.889-13.899v13.899h-9.683v29.048l-164.604.001zm271.112-29.048h-9.683v-14.524c0-18.687-15.206-33.889-33.889-33.889s-33.889 15.202-33.889 33.889v14.524h-9.683v-14.524c0-24.022 19.544-43.572 43.572-43.572s43.572 19.549 43.572 43.572v14.524zm-19.366 0h-48.413v-14.524c0-13.347 10.859-24.206 24.206-24.206s24.206 10.859 24.206 24.206v14.524h.001zm-111.349-9.683c-21.355 0-38.73-17.375-38.73-38.73s17.375-38.73 38.73-38.73 38.73 17.375 38.73 38.73-17.375 38.73-38.73 38.73zm33.889 101.667v-9.683h14.524v-9.683h-14.524v-43.572h14.524v-9.683h-14.524v-9.683h106.508v9.683h-14.524v9.683h14.524v43.572h-14.524v9.683h14.524v9.683H183.969z"/><path style="fill:#333" d="M237.223 186.39c-10.68 0-19.365 8.685-19.365 19.365 0 4.677 1.738 9.208 4.841 12.733v30.839h29.048v-30.839c3.103-3.524 4.841-8.056 4.841-12.733 0-10.679-8.685-19.365-19.365-19.365zm6.439 26.525-1.598 1.443v25.286h-9.683v-25.286l-1.598-1.443c-2.096-1.883-3.244-4.43-3.244-7.16 0-5.34 4.343-9.683 9.683-9.683s9.683 4.343 9.683 9.683c.001 2.731-1.147 5.278-3.243 7.16z"/></svg>